<svg xmlns="http://www.w3.org/2000/svg" width="61" height="18" fill="none" viewBox="0 0 61 18"><path fill="#D0D6DE" fill-rule="evenodd" d="M16.602.728v.007c-.008 0-2.334-.007-2.955 2.242-.568 2.063-2.171 7.76-2.215 7.916h-.444S9.348 5.07 8.774 2.97C8.153.72 5.819.728 5.819.728H.5v17.117h5.318V7.679h.443l3.102 10.166h3.692l3.102-10.158h.444v10.158h5.317V.728h-5.317ZM36.025.728s-1.558.142-2.29 1.793l-3.766 8.372h-.443V.728H24.21v17.117h5.022s1.632-.15 2.363-1.794l3.693-8.372h.443v10.166h5.318V.728h-5.023ZM43.41 8.5v9.344h5.319v-5.457h5.76c2.511 0 4.638-1.622 5.429-3.887H43.41Z" clip-rule="evenodd"/><path fill="#E3E9EF" fill-rule="evenodd" d="M54.49.728H42.665c.591 3.259 3.006 5.875 6.13 6.727a8.401 8.401 0 0 0 2.223.299h9.114c.081-.389.118-.785.118-1.196 0-3.222-2.577-5.83-5.76-5.83Z" clip-rule="evenodd"/></svg>