<svg xmlns="http://www.w3.org/2000/svg" width="512" height="388" fill="none" viewBox="0 0 512 388"><path stroke="#095B8B" stroke-linecap="round" stroke-linejoin="round" stroke-width="12" d="M326.667 387h-157M202.667 267h-33M342.667 307h-173M342.667 347h-173"/><path stroke="#009DDB" stroke-linecap="round" stroke-linejoin="round" stroke-width="12" d="M148.667 76.666h185l64.666 65.834v255.166a35.666 35.666 0 0 1-35.666 35.667h-214A35.667 35.667 0 0 1 113 397.666V112.333a35.666 35.666 0 0 1 35.667-35.667Z"/><path stroke="#fff" stroke-width="12" d="M172.495 146.822a4 4 0 0 1 0-5.657l27.337-27.337a4 4 0 0 1 5.657 0l24.075 24.075-32.994 32.994-24.075-24.075Z"/><rect width="7.179" height="14.357" x="186.418" y="146.532" fill="#fff" rx="2" transform="rotate(-45 186.418 146.532)"/><rect width="7.179" height="14.357" x="200.123" y="132.827" fill="#fff" rx="2" transform="rotate(-45 200.123 132.827)"/><path stroke="#fff" stroke-width="12" d="M186.485 182.131a.814.814 0 0 1 0-1.15l53.163-53.163a.814.814 0 0 1 1.15 0l68.712 68.712c14.998 14.998 14.998 39.315 0 54.313-14.998 14.998-39.315 14.998-54.313 0l-68.712-68.712Z"/><circle cx="282.353" cy="223.687" r="19.741" stroke="#fff" stroke-width="12" transform="rotate(-45 282.353 223.687)"/><path stroke="#009DDB" stroke-linecap="round" stroke-linejoin="round" stroke-width="12" d="M332.667 78v65h65"/></svg>