<svg xmlns="http://www.w3.org/2000/svg" width="64" height="64" fill="none" viewBox="0 0 64 64"><circle cx="32" cy="32" r="32" fill="#F7F9FC"/><path stroke="#FF7000" stroke-linecap="round" stroke-width="2" d="M45.5 20H48a2 2 0 0 1 2 2v25a2 2 0 0 1-2 2H16a2 2 0 0 1-2-2V22a2 2 0 0 1 2-2h2.5"/><path stroke="#FF7000" stroke-width="2" d="m32 10.26 2.397 4.857a2 2 0 0 0 1.506 1.094l5.36.779-3.878 3.781a2 2 0 0 0-.575 1.77l.915 5.34-4.794-2.521a2 2 0 0 0-1.862 0l-4.794 2.52.915-5.339a2 2 0 0 0-.575-1.77l-3.879-3.781 5.36-.779a2 2 0 0 0 1.507-1.094L32 10.26Z"/><rect width="10" height="6" x="18" y="39" stroke="#FF7000" stroke-width="2" rx="1"/><rect width="14" height="6" x="32" y="39" stroke="#FF7000" stroke-width="2" rx="1"/><rect width="28" height="4" x="18" y="32" stroke="#FF7000" stroke-width="2" rx="1"/></svg>