<svg xmlns="http://www.w3.org/2000/svg" width="64" height="64" fill="none" viewBox="0 0 64 64"><circle cx="32" cy="32" r="32" fill="#F7F9FC"/><path fill="#FF7000" d="M42 18a1 1 0 1 0 0-2v2Zm-6-2a1 1 0 1 0 0 2v-2Zm4 4v-3h-2v3h2Zm-1-2h3v-2h-3v2Zm0-2h-3v2h3v-2Z"/><circle cx="39" cy="23" r="1" fill="#FF7000"/><circle cx="39" cy="43" r="1" fill="#FF7000"/><circle cx="49" cy="33" r="1" fill="#FF7000"/><circle cx="29" cy="33" r="1" fill="#FF7000"/><circle cx="39" cy="33" r="13" stroke="#FF7000" stroke-width="2"/><path stroke="#FF7000" stroke-linecap="round" stroke-width="2" d="m39 33 7-7M26 20h-7m4 6H13m8 6H10m12 6H12m13 6h-6"/></svg>