<svg xmlns="http://www.w3.org/2000/svg" width="96" height="96" fill="none" viewBox="0 0 96 96"><path stroke="#009DDB" stroke-linecap="round" stroke-linejoin="round" stroke-width="2" d="M48 88c22.091 0 40-17.909 40-40S70.091 8 48 8 8 25.909 8 48s17.909 40 40 40Z"/><path stroke="#009DDB" stroke-linecap="round" stroke-linejoin="round" stroke-width="2" d="M36.68 36A12 12 0 0 1 60 40c0 5.238-5.144 8.76-8.696 10.57-1.918.976-3.304 2.882-3.304 5.034V58"/><path fill="#009DDB" fill-rule="evenodd" d="M50 68c0-1.105-.891-2-1.99-2h-.02c-1.099 0-1.99.895-1.99 2s.891 2 1.99 2h.02c1.099 0 1.99-.895 1.99-2Z" clip-rule="evenodd"/></svg>