<svg xmlns="http://www.w3.org/2000/svg" width="64" height="64" fill="none" viewBox="0 0 64 64"><circle cx="32" cy="32" r="32" fill="#F7F9FC"/><rect width="4" height="1" x="28" y="33" fill="#FF7000" rx=".5"/><rect width="4" height="1" x="28" y="40" fill="#FF7000" rx=".5"/><rect width="10" height="1" x="28" y="31" fill="#FF7000" rx=".5"/><rect width="10" height="1" x="28" y="38" fill="#FF7000" rx=".5"/><path stroke="#FF7000" stroke-linecap="round" stroke-linejoin="round" stroke-width="2" d="m26 30-3.514 4L21 32.333M26 37l-3.514 4L21 39.333"/><rect width="26" height="34" x="16" y="13" stroke="#FF7000" stroke-width="2" rx="2"/><path stroke="#FF7000" stroke-linecap="round" stroke-linejoin="round" stroke-width="2" d="M37 24h-1a2 2 0 0 1-2-2v-2a2 2 0 0 1 2-2h1M27 18v6l4-6v6M24 24h-3v-3m3-3h-3v3m0 0h1.714"/><path stroke="#FF7000" stroke-width="2" d="M42 17h4a2 2 0 0 1 2 2v30a2 2 0 0 1-2 2H24a2 2 0 0 1-2-2v-2"/></svg>