<svg xmlns="http://www.w3.org/2000/svg" width="64" height="64" fill="none" viewBox="0 0 64 64"><circle cx="32" cy="32" r="32" fill="#F7F9FC"/><rect width="11" height="1" x="24" y="18" fill="#718C9E" rx=".5"/><rect width="10" height="1" x="28" y="24" fill="#718C9E" rx=".5"/><rect width="4" height="1" x="28" y="26" fill="#718C9E" rx=".5"/><rect width="4" height="1" x="28" y="33" fill="#718C9E" rx=".5"/><rect width="4" height="1" x="28" y="40" fill="#718C9E" rx=".5"/><rect width="10" height="1" x="28" y="31" fill="#718C9E" rx=".5"/><rect width="10" height="1" x="28" y="38" fill="#718C9E" rx=".5"/><path stroke="#718C9E" stroke-linecap="round" stroke-linejoin="round" stroke-width="2" d="m26 23-3.514 4L21 25.333M26 30l-3.514 4L21 32.333M26 37l-3.514 4L21 39.333"/><rect width="26" height="34" x="16" y="13" stroke="#718C9E" stroke-width="2" rx="2"/><path stroke="#718C9E" stroke-width="2" d="M42 17h4a2 2 0 0 1 2 2v30a2 2 0 0 1-2 2H24a2 2 0 0 1-2-2v-2"/></svg>