<svg xmlns="http://www.w3.org/2000/svg" width="64" height="64" fill="none" viewBox="0 0 64 64"><circle cx="32" cy="32" r="32" fill="#F7F9FC"/><path stroke="#718C9E" stroke-width="2" d="m13.309 28.476 9.394-5.722 8.843 14.52-9.394 5.721zM25.825 27.879l3.416-2.08 2.601 4.27-3.416 2.08zM29.761 26.652a2 2 0 0 1 .668-2.748l12.384-7.543a3.5 3.5 0 1 1 3.641 5.978L34.07 29.883a2 2 0 0 1-2.748-.668l-1.56-2.562Z"/><rect width="15" height="5" x="9" y="25.247" stroke="#718C9E" stroke-width="2" rx="2" transform="rotate(-31.344 9 25.247)"/><rect width="15" height="5" x="20.444" y="44.036" stroke="#718C9E" stroke-width="2" rx="2" transform="rotate(-31.344 20.444 44.036)"/><path stroke="#718C9E" stroke-linecap="round" stroke-linejoin="round" stroke-width="2" d="M32 48h12.5M37 44l9-3m-7-2 3-3"/></svg>