<svg xmlns="http://www.w3.org/2000/svg" width="64" height="64" fill="none" viewBox="0 0 64 64"><circle cx="32" cy="32" r="32" fill="#F7F9FC"/><path stroke="#009DDB" stroke-linecap="round" stroke-linejoin="round" stroke-width="2" d="M16.628 28.763v0c-2.755.576-2.907 3.588-.133 4.068 3.735.646 8.744 1.178 15.11 1.178 6.322 0 11.306-.525 15.032-1.165 2.794-.479 2.64-3.506-.136-4.08v0"/><path stroke="#009DDB" stroke-linecap="round" stroke-linejoin="round" stroke-width="2" d="M23.85 29.675s2.434.342 7.754.342c5.32 0 7.754-.342 7.754-.342M46.315 36.175C46.315 44.364 39.704 51 31.548 51c-8.156 0-14.768-6.637-14.768-14.825M46.087 26.596c0-6.477-2.413-12.088-7.24-12.212-2-.052-1.035-2.384-7.242-2.384s-5.242 2.332-7.241 2.384c-4.828.124-7.241 5.735-7.241 12.212"/></svg>