<svg xmlns="http://www.w3.org/2000/svg" width="64" height="64" fill="none" viewBox="0 0 64 64"><circle cx="32" cy="32" r="32" fill="#F7F9FC"/><circle cx="41.5" cy="37.5" r="10.5" stroke="#718C9E" stroke-width="2"/><path stroke="#718C9E" stroke-linecap="round" stroke-linejoin="round" stroke-width="2" d="M48 45v-1.333c0-.708-.342-1.386-.952-1.886-.61-.5-1.436-.781-2.298-.781h-6.5c-.862 0-1.689.281-2.298.781-.61.5-.952 1.178-.952 1.886V45M41.5 38a3.5 3.5 0 1 0 0-7 3.5 3.5 0 0 0 0 7Z"/><path stroke="#718C9E" stroke-width="2" d="m12.309 30.476 9.394-5.722 8.843 14.52-9.394 5.721zM24.825 29.879l3.416-2.08 2.601 4.27-3.416 2.08zM31.362 32.922l-2.6-4.27a2 2 0 0 1 .667-2.748l12.384-7.543a3.5 3.5 0 1 1 3.641 5.978l-4.651 2.834"/><rect width="15" height="5" x="8" y="27.247" stroke="#718C9E" stroke-width="2" rx="2" transform="rotate(-31.344 8 27.247)"/><path stroke="#718C9E" stroke-width="2" d="m30.996 39-9.844 5.995a2 2 0 0 0-.668 2.749l.52.854a2 2 0 0 0 2.749.668L33 43.634"/></svg>