<svg xmlns="http://www.w3.org/2000/svg" width="64" height="64" fill="none" viewBox="0 0 64 64"><circle cx="32" cy="32" r="32" fill="#F7F9FC"/><rect width="15.284" height="1" x="29.364" y="24.914" fill="#FF7000" rx=".5"/><rect width="15.284" height="1" x="28.983" y="27.914" fill="#FF7000" rx=".5"/><rect width="10.189" height="1" x="28.56" y="30.914" fill="#FF7000" rx=".5"/><rect width="5.944" height="1" x="28.155" y="33.914" fill="#FF7000" rx=".5"/><path stroke="#FF7000" stroke-linejoin="round" d="m41.005 34.914-4.813 4.846-2.062-2.077-2.063 2.077 4.125 4.154 6.875-6.923-2.062-2.077Z"/><path stroke="#FF7000" stroke-width="2" d="M43.933 17h3.353a2 2 0 0 1 1.974 2.32l-4.178 25.828a2 2 0 0 1-1.974 1.68H24.35a2 2 0 0 1-1.975-2.319l4.178-25.828A2 2 0 0 1 28.528 17h4"/><path stroke="#FF7000" stroke-linecap="round" stroke-width="2" d="M22 19h-3.99M21 25h-6.99M20 31h-7.99M19 37h-6.99M18 43h-2.99"/><path stroke="#FF7000" stroke-width="2" d="M32.708 16.836a1 1 0 0 1 .986-.836h8.945a1 1 0 0 1 .986 1.164l-.333 2a1 1 0 0 1-.986.836H33.36a1 1 0 0 1-.986-1.164l.333-2Z"/><path fill="#FF7000" d="M35.268 15.27A1.5 1.5 0 0 1 36.75 14h3.002a1.5 1.5 0 1 1 0 3H36.75a1.5 1.5 0 0 1-1.482-1.73Z"/></svg>