<svg xmlns="http://www.w3.org/2000/svg" width="512" height="480" fill="none" viewBox="0 0 512 480"><circle cx="259.5" cy="236.5" r="178.5" stroke="#095B8B" stroke-width="12"/><path stroke="#009DDB" stroke-width="12" d="M227 124a4 4 0 0 1 4-4h57a4 4 0 0 1 4 4v49h-65v-49Z"/><rect width="10" height="20" x="241" y="139" fill="#009DDB" rx="2"/><rect width="10" height="20" x="268" y="139" fill="#009DDB" rx="2"/><path stroke="#009DDB" stroke-width="12" d="M206 174.133c0-.626.507-1.133 1.133-1.133h104.734c.626 0 1.133.507 1.133 1.133V309.5c0 29.547-23.953 53.5-53.5 53.5S206 339.047 206 309.5V174.133Z"/><circle cx="259.5" cy="309.5" r="27.5" stroke="#009DDB" stroke-width="12"/></svg>