<svg xmlns="http://www.w3.org/2000/svg" width="64" height="64" fill="none" viewBox="0 0 64 64"><circle cx="32" cy="32" r="32" fill="#F7F9FC"/><path stroke="#FF7000" stroke-linecap="round" stroke-linejoin="round" stroke-width="2" d="m38 26-8.433 8L26 30.667"/><path stroke="#FF7000" stroke-linejoin="round" stroke-width="2" d="M30.522 13.623a2 2 0 0 1 2.956 0l1.386 1.52a2 2 0 0 0 2.085.559l1.96-.624a2 2 0 0 1 2.56 1.478l.44 2.01a2 2 0 0 0 1.526 1.526l2.009.439a2 2 0 0 1 1.478 2.56l-.624 1.96a2 2 0 0 0 .56 2.086l1.52 1.385a2 2 0 0 1 0 2.956l-1.52 1.386a2 2 0 0 0-.56 2.085l.624 1.96a2 2 0 0 1-1.478 2.56l-2.01.44a2 2 0 0 0-1.526 1.526l-.439 2.009a2 2 0 0 1-2.56 1.478l-1.96-.624a2 2 0 0 0-2.085.56l-1.386 1.52a2 2 0 0 1-2.956 0l-1.385-1.52a2 2 0 0 0-2.086-.56l-1.96.624a2 2 0 0 1-2.56-1.478l-.44-2.01a2 2 0 0 0-1.526-1.526l-2.009-.439a2 2 0 0 1-1.478-2.56l.624-1.96a2 2 0 0 0-.56-2.085l-1.52-1.386a2 2 0 0 1 0-2.956l1.52-1.385a2 2 0 0 0 .56-2.086l-.624-1.96a2 2 0 0 1 1.478-2.56l2.01-.44a2 2 0 0 0 1.526-1.526l.439-2.009a2 2 0 0 1 2.56-1.478l1.96.624a2 2 0 0 0 2.086-.56l1.385-1.52Z"/><path stroke="#FF7000" stroke-linecap="round" stroke-linejoin="round" stroke-width="2" d="M22 42v10l10-2 10 2V42"/></svg>