<svg xmlns="http://www.w3.org/2000/svg" width="512" height="370" fill="none" viewBox="0 0 512 370"><path stroke="#009DDB" stroke-linecap="round" stroke-linejoin="round" stroke-width="12" d="M136.332 325v72.666a35.667 35.667 0 0 0 35.667 35.667h214a35.667 35.667 0 0 0 35.666-35.667v-214l-107-107H171.999a35.664 35.664 0 0 0-35.667 35.667V157"/><path stroke="#fff" stroke-linecap="round" stroke-linejoin="round" stroke-width="12" d="M186 184H65M94.375 216.75 62 184.375 94.375 152"/><g stroke="#fff" stroke-linecap="round" stroke-linejoin="round" stroke-width="12" clip-path="url(#a)"><path d="M48 264h123M139.625 296.75 172 264.375 139.625 232"/></g><path stroke="#009DDB" stroke-linecap="round" stroke-linejoin="round" stroke-width="12" d="M315 77v107h107"/><path stroke="#095B8B" stroke-linecap="round" stroke-linejoin="round" stroke-width="12" d="M350.335 344.166H207.668M228.667 144H193M264 184h-49M366 224H193M336 264H215M366 304H193"/><defs><clipPath id="a"><path fill="#fff" d="M211 223H44v87h167z"/></clipPath></defs></svg>