<svg xmlns="http://www.w3.org/2000/svg" width="64" height="64" fill="none" viewBox="0 0 64 64"><circle cx="32" cy="32" r="32" fill="#F7F9FC"/><path stroke="#009DDB" stroke-linecap="round" stroke-linejoin="round" stroke-width="2" d="M37 47v-2.667c0-1.414-.5-2.77-1.391-3.77-.891-1.001-2.1-1.563-3.359-1.563h-9.5c-1.26 0-2.468.562-3.359 1.562-.89 1-1.391 2.357-1.391 3.771V47M27.5 35a4.5 4.5 0 1 0 0-9 4.5 4.5 0 0 0 0 9Z"/><path stroke="#009DDB" stroke-linecap="round" stroke-width="2" d="M37 26h5m5 0h-5m0 0v-5m0 5v5M27 17h3m3 0h-3m0 0v-3m0 3v3M43 40h3m3 0h-3m0 0v-3m0 3v3"/></svg>