<svg xmlns="http://www.w3.org/2000/svg" width="64" height="64" fill="none" viewBox="0 0 64 64"><circle cx="32" cy="32" r="32" fill="#F7F9FC"/><path fill="#009DDB" fill-rule="evenodd" d="M43.236 15.652c1.576.733 2.098 1.546 2.098 2.098 0 .553-.522 1.365-2.098 2.099-1.494.695-3.628 1.151-6.04 1.151-2.41 0-4.545-.456-6.039-1.151-1.576-.734-2.098-1.546-2.098-2.099 0-.552.522-1.365 2.098-2.098 1.494-.695 3.628-1.152 6.04-1.152 2.41 0 4.545.457 6.039 1.152Zm-14.177 5.3c.39.27.816.506 1.255.71C32.127 22.505 34.56 23 37.197 23c2.635 0 5.07-.495 6.882-1.338.439-.204.864-.44 1.255-.71v3.598c0 .553-.522 1.365-2.098 2.099-1.494.694-3.628 1.151-6.04 1.151-2.41 0-4.545-.457-6.039-1.151-1.576-.734-2.098-1.546-2.098-2.099v-3.597Zm0 6.8c.39.27.816.506 1.255.71 1.813.843 4.247 1.338 6.883 1.338 2.635 0 5.07-.495 6.882-1.338.439-.204.864-.44 1.255-.71v3.598c0 .553-.522 1.365-2.098 2.099-1.494.695-3.628 1.151-6.04 1.151-.985 0-1.928-.076-2.803-.215-.551-.707-1.356-1.285-2.271-1.738-.884-.438-1.924-.788-3.063-1.033v-3.861Zm-2 3.55V17.75c0-1.795 1.524-3.107 3.255-3.912 1.813-.843 4.247-1.338 6.883-1.338 2.635 0 5.07.495 6.882 1.338 1.731.805 3.255 2.117 3.255 3.912v20.4c0 1.795-1.524 3.107-3.255 3.912-1.813.843-4.247 1.338-6.883 1.338-.7 0-1.385-.035-2.046-.102-.027 1.77-1.539 3.066-3.254 3.864-1.813.843-4.248 1.338-6.883 1.338s-5.07-.495-6.883-1.338c-1.73-.805-3.254-2.117-3.254-3.912v-6.8c0-1.795 1.523-3.107 3.254-3.912 1.813-.843 4.248-1.338 6.883-1.338.7 0 1.385.035 2.046.102Zm-10.183 8.35v3.598c0 .553.521 1.365 2.098 2.099 1.494.695 3.628 1.151 6.04 1.151 2.41 0 4.545-.456 6.039-1.151 1.576-.734 2.098-1.546 2.098-2.099v-3.597a8.68 8.68 0 0 1-1.255.709c-1.813.843-4.248 1.338-6.883 1.338s-5.07-.495-6.883-1.338a8.674 8.674 0 0 1-1.254-.71Zm18.275-3.154v4.79c.653.073 1.339.112 2.045.112 2.412 0 4.546-.456 6.04-1.151 1.576-.734 2.098-1.546 2.098-2.099v-3.597c-.39.268-.816.505-1.255.709-1.813.843-4.247 1.338-6.883 1.338-.7 0-1.384-.035-2.045-.102Zm-2-.048c0 .553-.522 1.365-2.098 2.099-1.494.694-3.629 1.151-6.04 1.151s-4.545-.457-6.04-1.151c-1.576-.734-2.097-1.546-2.097-2.099 0-.552.521-1.365 2.098-2.098 1.494-.695 3.628-1.152 6.04-1.152 1.015 0 1.985.081 2.883.229 1.315.216 2.454.572 3.337 1.01.897.444 1.455.935 1.721 1.377.14.231.196.441.196.634Z" clip-rule="evenodd"/></svg>