<svg xmlns="http://www.w3.org/2000/svg" width="64" height="64" fill="none" viewBox="0 0 64 64"><circle cx="32" cy="32" r="32" fill="#F7F9FC"/><path stroke="#FF7000" stroke-width="2" d="M14 19v25a2 2 0 0 0 2 2h32a2 2 0 0 0 2-2V19a2 2 0 0 0-2-2H16a2 2 0 0 0-2 2Z"/><rect width="10" height="6" x="18" y="30" stroke="#FF7000" stroke-width="2" rx="1"/><rect width="10" height="6" x="18" y="40" stroke="#FF7000" stroke-width="2" rx="1"/><rect width="14" height="10" x="32" y="30" stroke="#FF7000" stroke-width="2" rx="1"/><rect width="14" height="3" x="32" y="43" stroke="#FF7000" stroke-width="2" rx="1"/><rect width="28" height="4" x="18" y="22" stroke="#FF7000" stroke-width="2" rx="1"/></svg>