<svg xmlns="http://www.w3.org/2000/svg" width="64" height="64" fill="none" viewBox="0 0 64 64"><rect width="64" height="64" fill="#F7F9FC" rx="32"/><path fill="#FF7000" d="M24.66 43.795V41.75l7.681-8.41a53.387 53.387 0 0 0 2.227-2.567c.584-.735 1.015-1.424 1.296-2.069a5.006 5.006 0 0 0 .431-2.045c0-.818-.196-1.526-.59-2.125a3.833 3.833 0 0 0-1.591-1.386c-.674-.326-1.432-.489-2.273-.489-.894 0-1.674.186-2.34.557-.66.363-1.171.875-1.535 1.534-.356.66-.534 1.432-.534 2.318H24.75c0-1.364.314-2.56.943-3.59a6.553 6.553 0 0 1 2.569-2.41c1.09-.576 2.314-.864 3.67-.864 1.363 0 2.572.288 3.625.864 1.053.576 1.879 1.352 2.477 2.33.599.977.898 2.064.898 3.261 0 .856-.155 1.693-.466 2.512-.303.81-.833 1.715-1.59 2.715-.75.993-1.793 2.205-3.126 3.637l-5.227 5.59v.182H39.34v2.5H24.659Z"/></svg>