<svg xmlns="http://www.w3.org/2000/svg" width="64" height="64" fill="none" viewBox="0 0 64 64"><rect width="64" height="64" fill="#F7F9FC" rx="32"/><path fill="#FF7000" d="M32.085 44.318c-1.5 0-2.837-.257-4.011-.773-1.167-.515-2.095-1.23-2.784-2.147-.682-.925-1.053-1.997-1.114-3.216h2.864c.06.75.318 1.398.773 1.943.454.538 1.049.955 1.784 1.25.734.295 1.549.443 2.443.443 1 0 1.886-.174 2.659-.523.773-.348 1.379-.833 1.818-1.454.44-.621.66-1.341.66-2.16 0-.855-.213-1.609-.637-2.26-.425-.66-1.046-1.175-1.864-1.546-.818-.371-1.818-.557-3-.557h-1.863v-2.5h1.863c.924 0 1.735-.167 2.432-.5.705-.333 1.254-.803 1.648-1.409.401-.606.602-1.318.602-2.136 0-.788-.174-1.474-.523-2.057a3.575 3.575 0 0 0-1.477-1.364c-.629-.326-1.371-.488-2.227-.488-.803 0-1.56.147-2.273.443a4.234 4.234 0 0 0-1.727 1.261c-.447.546-.69 1.205-.728 1.977h-2.727c.046-1.22.413-2.287 1.102-3.204.69-.924 1.591-1.644 2.705-2.16 1.121-.514 2.352-.772 3.693-.772 1.44 0 2.674.292 3.705.875 1.03.576 1.822 1.337 2.375 2.284.553.947.83 1.97.83 3.068 0 1.311-.346 2.428-1.035 3.353-.682.924-1.61 1.564-2.784 1.92v.182c1.47.242 2.617.867 3.443 1.875.826 1 1.239 2.239 1.239 3.716 0 1.265-.345 2.401-1.034 3.409-.682 1-1.614 1.788-2.796 2.364-1.181.575-2.526.863-4.034.863Z"/></svg>