<svg xmlns="http://www.w3.org/2000/svg" width="64" height="64" fill="none" viewBox="0 0 64 64"><rect width="64" height="64" fill="#F7F9FC" rx="32"/><path fill="#FF7000" d="M32.023 43.955c-1.5 0-2.837-.258-4.012-.773-1.166-.515-2.094-1.231-2.784-2.148-.681-.924-1.053-1.996-1.113-3.216h2.863c.061.75.319 1.398.773 1.943.455.538 1.05.955 1.784 1.25.735.296 1.55.444 2.443.444 1 0 1.887-.175 2.66-.523.772-.349 1.378-.834 1.818-1.455.44-.62.659-1.34.659-2.159 0-.856-.212-1.61-.637-2.261-.424-.66-1.045-1.174-1.863-1.546-.818-.37-1.818-.556-3-.556H29.75v-2.5h1.864c.924 0 1.735-.167 2.432-.5.704-.334 1.253-.803 1.647-1.41.402-.606.603-1.318.603-2.136 0-.788-.175-1.473-.523-2.057a3.575 3.575 0 0 0-1.477-1.363c-.63-.326-1.372-.489-2.228-.489a5.87 5.87 0 0 0-2.272.443 4.233 4.233 0 0 0-1.728 1.261c-.447.546-.69 1.205-.727 1.978h-2.727c.045-1.22.413-2.288 1.102-3.205.69-.924 1.591-1.644 2.705-2.159 1.12-.515 2.352-.773 3.693-.773 1.44 0 2.674.292 3.704.875 1.03.576 1.822 1.338 2.375 2.284.553.947.83 1.97.83 3.069 0 1.31-.345 2.428-1.034 3.352-.682.924-1.61 1.564-2.784 1.92v.182c1.47.243 2.617.868 3.443 1.875.826 1 1.238 2.239 1.238 3.716 0 1.265-.344 2.402-1.034 3.41-.681 1-1.613 1.787-2.795 2.363-1.182.576-2.527.864-4.034.864Z"/></svg>