<svg xmlns="http://www.w3.org/2000/svg" width="64" height="64" fill="none" viewBox="0 0 64 64"><rect width="64" height="64" fill="#F7F9FC" rx="32"/><path fill="#FF7000" d="M31.773 43.795c-1.334 0-2.534-.265-3.603-.795-1.068-.53-1.924-1.258-2.568-2.182-.644-.924-.996-1.977-1.057-3.159h2.728c.106 1.053.583 1.924 1.431 2.614.857.681 1.88 1.022 3.069 1.022.954 0 1.803-.223 2.545-.67a4.732 4.732 0 0 0 1.762-1.84c.431-.789.647-1.679.647-2.671 0-1.015-.223-1.92-.67-2.716a4.921 4.921 0 0 0-1.818-1.898c-.773-.462-1.656-.697-2.648-.704a7.271 7.271 0 0 0-2.193.329c-.75.22-1.368.504-1.853.852l-2.636-.318 1.41-11.454h12.09v2.5h-9.727l-.818 6.863H28c.477-.379 1.076-.693 1.795-.943.72-.25 1.47-.375 2.25-.375 1.425 0 2.694.34 3.807 1.023 1.121.674 2 1.598 2.637 2.772.644 1.175.966 2.516.966 4.023 0 1.485-.334 2.81-1 3.977a7.311 7.311 0 0 1-2.728 2.75c-1.159.667-2.477 1-3.954 1Z"/></svg>