<svg xmlns="http://www.w3.org/2000/svg" width="64" height="64" fill="none" viewBox="0 0 64 64"><rect width="64" height="64" fill="#F7F9FC" rx="32"/><path fill="#FF7000" d="M31.947 44.318c-1.333 0-2.534-.265-3.602-.795s-1.924-1.258-2.568-2.182c-.644-.924-.996-1.977-1.057-3.16h2.727c.107 1.054.584 1.925 1.432 2.614.856.682 1.879 1.023 3.068 1.023.955 0 1.804-.223 2.546-.67a4.732 4.732 0 0 0 1.761-1.841c.432-.788.648-1.678.648-2.67 0-1.016-.224-1.921-.67-2.717a4.92 4.92 0 0 0-1.819-1.897c-.772-.462-1.655-.697-2.647-.705a7.275 7.275 0 0 0-2.194.33c-.75.22-1.367.503-1.852.852l-2.636-.318 1.409-11.455h12.09v2.5h-9.726l-.819 6.864h.137c.477-.379 1.075-.693 1.795-.943s1.47-.375 2.25-.375c1.424 0 2.693.34 3.807 1.023 1.121.674 2 1.598 2.636 2.772.644 1.174.966 2.515.966 4.023 0 1.485-.333 2.81-1 3.977a7.31 7.31 0 0 1-2.727 2.75c-1.16.667-2.477 1-3.955 1Z"/></svg>