<svg xmlns="http://www.w3.org/2000/svg" width="64" height="64" fill="none" viewBox="0 0 64 64"><rect width="8" height="25" x="7" y="27" stroke="#718C9E" stroke-width="2" rx="1"/><rect width="8" height="25" x="50" y="27" stroke="#718C9E" stroke-width="2" rx="1"/><path stroke="#718C9E" stroke-width="2" d="M15 32a1 1 0 0 1 1-1h10.759a1 1 0 0 1 .864 1.504l-2.125 3.643a1 1 0 0 0 .349 1.361l3.668 2.2a1 1 0 0 1 .485.858v3.26a1 1 0 0 0 1.65.759l4.583-3.928a1 1 0 0 0 .102-1.417l-2.284-2.61a1 1 0 0 1-.028-1.283l3.177-3.972a1 1 0 0 1 .78-.375H49a1 1 0 0 1 1 1v15a1 1 0 0 1-1 1H16a1 1 0 0 1-1-1V32Z"/><path stroke="#718C9E" stroke-linecap="round" stroke-linejoin="round" stroke-width="2" d="M32.5 29v-7m0-7c.167-1.167.5-4 4.5-4 3.6 0 5 3 5 3m-9.5 1v7m0-7s-.5-4-4.5-4c-3.5 0-5 3-5 3m9.5 8c.667-1.333 2.7-4 5.5-4 5 0 6 4 6 4m-11.5 0c-.667-1.333-2.7-4-5.5-4-5 0-6 4-6 4"/></svg>