<svg xmlns="http://www.w3.org/2000/svg" width="111" height="48" fill="none" viewBox="0 0 111 48"><g fill-rule="evenodd" clip-path="url(#a)" clip-rule="evenodd"><path fill="#FF7000" d="M37.646 10.543-25 73h250V0H64l-.005.005a36.734 36.734 0 0 0-6.267.434 36.657 36.657 0 0 0-20.082 10.104Z"/><g fill="#fff" clip-path="url(#b)"><path d="M87 24a1.5 1.5 0 0 0-1.5-1.5h-21a1.5 1.5 0 0 0 0 3h21A1.5 1.5 0 0 0 87 24Z"/><path d="M73.94 12.44a1.5 1.5 0 0 0 0 2.12L83.378 24l-9.44 9.44a1.5 1.5 0 0 0 2.122 2.12l10.5-10.5a1.5 1.5 0 0 0 0-2.12l-10.5-10.5a1.5 1.5 0 0 0-2.122 0Z"/></g></g><defs><clipPath id="a"><path fill="#fff" d="M0 0h111v48H0z"/></clipPath><clipPath id="b"><path fill="#fff" d="M63 12h24v24H63z"/></clipPath></defs></svg>