<svg xmlns="http://www.w3.org/2000/svg" width="64" height="64" fill="none" viewBox="0 0 64 64"><circle cx="32" cy="32" r="32" fill="#F7F9FC"/><rect width="11" height="1" x="29" y="21" fill="#004065" rx=".5"/><rect width="14" height="1" x="29" y="26" fill="#004065" rx=".5"/><rect width="15" height="1" x="28" y="29" fill="#004065" rx=".5"/><rect width="14" height="1" x="29" y="32" fill="#004065" rx=".5"/><rect width="11" height="1" x="32" y="35" fill="#004065" rx=".5"/><rect width="11" height="1" x="32" y="38" fill="#004065" rx=".5"/><rect width="9" height="1" x="29" y="41" fill="#004065" rx=".5"/><path stroke="#004065" stroke-linecap="round" stroke-width="2" d="M21 41.5V48a2 2 0 0 0 2 2h22a2 2 0 0 0 2-2V18a2 2 0 0 0-2-2H23a2 2 0 0 0-2 2v5"/><path stroke="#004065" stroke-linecap="round" stroke-linejoin="round" stroke-width="2" d="M26 27H12m0 0 5-5m-5 5 5 5M15 37h14m0 0-5-5m5 5-5 5"/></svg>