<svg xmlns="http://www.w3.org/2000/svg" width="64" height="64" fill="none" viewBox="0 0 64 64"><circle cx="32" cy="32" r="32" fill="#F7F9FC"/><path stroke="#718C9E" stroke-linecap="round" stroke-width="2" d="M22 41.5V47a2 2 0 0 0 2 2h22a2 2 0 0 0 2-2V17a2 2 0 0 0-2-2H24a2 2 0 0 0-2 2v2"/><rect width="11" height="1" x="33" y="34" fill="#718C9E" rx=".5"/><path stroke="#718C9E" stroke-linecap="round" stroke-linejoin="round" stroke-width="2" d="M20 38a8 8 0 1 0 0-16 8 8 0 0 0 0 16ZM31 41l-5-5"/><rect width="9" height="1" x="35" y="37" fill="#718C9E" rx=".5"/><rect width="9" height="1" x="35" y="40" fill="#718C9E" rx=".5"/><rect width="9" height="1" x="35" y="43" fill="#718C9E" rx=".5"/><path stroke="#718C9E" stroke-width="2" d="M38 22.552 32 21m6 1.552V30m0-7.448L44 21m-12 0v6.674a1 1 0 0 0 .75.968L38 30m-6-9 5.758-1.44a1 1 0 0 1 .484 0L44 21m-6 9 5.25-1.358a1 1 0 0 0 .75-.968V21"/></svg>