<svg xmlns="http://www.w3.org/2000/svg" width="64" height="64" fill="none" viewBox="0 0 64 64"><circle cx="32" cy="32" r="31.5" fill="#009ACE" stroke="#009ACE"/><rect width="11" height="1" x="25" y="18" fill="#fff" rx=".5"/><rect width="18" height="1" x="21" y="23" fill="#fff" rx=".5"/><rect width="18" height="1" x="21" y="26" fill="#fff" rx=".5"/><rect width="12" height="1" x="21" y="29" fill="#fff" rx=".5"/><rect width="7" height="1" x="21" y="32" fill="#fff" rx=".5"/><rect width="7" height="1" x="21" y="35" fill="#fff" rx=".5"/><path stroke="#fff" stroke-linejoin="round" d="m37.938 33-4.813 4.846-2.063-2.077L29 37.846 33.125 42 40 35.077 37.937 33Z"/><rect width="26" height="34" x="17" y="13" stroke="#fff" stroke-width="2" rx="2"/><rect width="26" height="34" x="17" y="13" stroke="#fff" stroke-width="2" rx="2"/><path stroke="#fff" stroke-width="2" d="M43 17h4a2 2 0 0 1 2 2v30a2 2 0 0 1-2 2H25a2 2 0 0 1-2-2v-2"/></svg>