<svg xmlns="http://www.w3.org/2000/svg" width="65" height="64" fill="none" viewBox="0 0 65 64"><path stroke="#718C9E" stroke-linecap="round" stroke-linejoin="round" stroke-width="2" d="M54.076 55.75v-5.436a10.87 10.87 0 0 0-10.871-10.87H37.77l-5.436 12.44-5.435-12.44h-5.436a10.87 10.87 0 0 0-10.87 10.87v5.436M23.198 39.029l-5.657-7.055c2.048.27 6.394.762 7.396.571M41.468 39.029l5.657-7.055c-2.047.27-6.394.762-7.396.571M15.076 19.663S25.57 22.13 32.333 22.13c6.763 0 17.257-2.466 17.257-2.466"/><path stroke="#718C9E" stroke-linecap="round" stroke-linejoin="round" stroke-width="2" d="M43.205 24.63c0 6.004-4.867 10.871-10.87 10.871-6.005 0-10.872-4.867-10.872-10.87M40.962 17.198c0-3.923-1.438-7.32-4.315-7.395-1.19-.031-.616 1.815-4.314 1.815S29.21 9.772 28.02 9.803c-2.876.075-4.314 3.472-4.314 7.395"/></svg>