<svg xmlns="http://www.w3.org/2000/svg" width="64" height="64" fill="none" viewBox="0 0 64 64"><circle cx="32" cy="32" r="32" fill="#F7F9FC"/><path stroke="#718C9E" stroke-width="2" d="M48 26c0-7.732-6.268-14-14-14h-4c-7.732 0-14 6.268-14 14m13 25c-7.18 0-13-5.82-13-13v-1M11.5 30a4 4 0 0 1 4-4h2a2 2 0 0 1 2 2v7a2 2 0 0 1-2 2h-2a4 4 0 0 1-4-4v-3ZM52 30a4 4 0 0 0-4-4h-2a2 2 0 0 0-2 2v7a2 2 0 0 0 2 2h2a4 4 0 0 0 4-4v-3Z"/><mask id="a" fill="#fff"><rect width="8" height="6" x="28" y="48" rx="1"/></mask><rect width="8" height="6" x="28" y="48" stroke="#718C9E" stroke-width="4" mask="url(#a)" rx="1"/></svg>