<svg xmlns="http://www.w3.org/2000/svg" width="65" height="64" fill="none" viewBox="0 0 65 64"><path stroke="#718C9E" stroke-width="2" d="M9.333 28.5a2.5 2.5 0 0 1 2.5-2.5h9.212c.025 0 .049-.009.068-.025l4.725-4.021A4 4 0 0 1 28.43 21H37.237a4 4 0 0 1 2.592.954l4.725 4.02c.019.017.043.026.068.026h9.211a2.5 2.5 0 0 1 0 5h-7.938c-.871 0-1.739.109-2.582.325l-1.667.425c-1.95.498-3.956.75-5.97.75H29.99c-2.013 0-4.018-.252-5.97-.75l-1.666-.425A10.436 10.436 0 0 0 19.772 31h-7.939a2.5 2.5 0 0 1-2.5-2.5Z"/><path stroke="#718C9E" stroke-linecap="round" stroke-linejoin="round" stroke-width="2" d="m18.333 31-8 19h2.5l11.5-18M46.333 31l8 19h-2.5l-5.75-9-5.75-9"/><path stroke="#718C9E" stroke-width="2" d="M12.333 24a2 2 0 0 1 2-2h2a2 2 0 0 1 2 2v2h-6v-2ZM47.333 24a2 2 0 0 1 2-2h2a2 2 0 0 1 2 2v2h-6v-2Z"/><path stroke="#718C9E" stroke-linecap="round" stroke-linejoin="round" stroke-width="2" d="M6.333 18h18M15.333 22v-3.5m35 3.5v-4M41.333 18h18"/></svg>