<svg xmlns="http://www.w3.org/2000/svg" width="144" height="16" fill="none" viewBox="0 0 144 16"><path fill="#D0D6DE" d="M70.053 1.143c-3.002 0-5.685 1.557-5.685 4.435 0 3.3 4.759 3.529 4.759 5.187 0 .698-.8 1.323-2.165 1.323-1.937 0-3.385-.873-3.385-.873l-.62 2.904s1.668.738 3.883.738c3.282 0 5.865-1.635 5.865-4.562 0-3.487-4.778-3.709-4.778-5.248 0-.546.656-1.146 2.017-1.146 1.536 0 2.79.635 2.79.635l.606-2.805s-1.364-.588-3.287-.588Zm-27.469.211-.072.424s1.263.231 2.4.693c1.465.529 1.57.837 1.816 1.794l2.689 10.373h3.603l5.552-13.284h-3.596l-3.567 9.032-1.455-7.656c-.134-.876-.81-1.376-1.638-1.376h-5.732Zm17.434 0-2.82 13.284h3.428l2.81-13.284h-3.418Zm19.121 0c-.826 0-1.264.443-1.586 1.218L72.53 14.638h3.596l.695-2.01h4.38l.423 2.01h3.173L82.029 1.354h-2.89Zm.468 3.59 1.066 4.984h-2.856l1.79-4.985Z"/><path fill="#D0D6DE" fill-rule="evenodd" d="M112.949 1.934v.005c-.005 0-1.654-.005-2.094 1.59-.403 1.462-1.539 5.499-1.57 5.61h-.314s-1.162-4.127-1.571-5.616c-.44-1.595-2.094-1.59-2.094-1.59h-3.769v12.133h3.769V6.861h.314l2.199 7.205h2.617l2.199-7.2h.314v7.2h3.769V1.934h-3.769ZM126.717 1.934s-1.105.1-1.623 1.271l-2.67 5.934h-.314V1.934h-3.769v12.132h3.56s1.157-.106 1.675-1.271l2.617-5.934h.315v7.205h3.769V1.934h-3.56ZM131.952 7.443v6.623h3.769v-3.868h4.083c1.78 0 3.288-1.15 3.848-2.755h-11.7Z" clip-rule="evenodd"/><path fill="#E3E9EF" fill-rule="evenodd" d="M139.804 1.934h-8.381c.419 2.31 2.13 4.164 4.345 4.768a5.95 5.95 0 0 0 1.576.212h6.459a4.09 4.09 0 0 0 .084-.848c0-2.283-1.827-4.132-4.083-4.132ZM9.4 14.29h6.969V1.71H9.4v12.58Z" clip-rule="evenodd"/><path fill="#D0D6DE" fill-rule="evenodd" d="M9.843 8a7.998 7.998 0 0 1 3.042-6.29A7.907 7.907 0 0 0 7.963 0C3.565 0 0 3.582 0 8s3.565 8 7.963 8c1.858 0 3.567-.64 4.922-1.71A7.998 7.998 0 0 1 9.843 8Z" clip-rule="evenodd"/><path fill="#D0D6DE" fill-rule="evenodd" d="M25.521 12.957v-.31h-.08l-.093.213-.093-.213h-.08v.31h.056v-.234l.087.202h.06l.087-.203v.235h.056Zm-.51 0v-.258h.103v-.052h-.264v.053h.104v.257h.056ZM25.77 8c0 4.418-3.566 8-7.963 8a7.906 7.906 0 0 1-4.922-1.71A7.998 7.998 0 0 0 15.927 8a8 8 0 0 0-3.042-6.29A7.906 7.906 0 0 1 17.807 0c4.398 0 7.963 3.582 7.963 8Z" clip-rule="evenodd"/></svg>