<svg xmlns="http://www.w3.org/2000/svg" width="65" height="64" fill="none" viewBox="0 0 65 64"><path stroke="#718C9E" stroke-linecap="round" stroke-linejoin="round" stroke-width="2" d="M12.667 42.5c-1.65 15 15 15.5 15 15.5s-6.768-4-8.5-10.5c-2-7.5 3.621-10.355 3.621-10.355s-.797 4.193.879 7.855c1.676 3.662 6.804 3.844 6.804 3.844S25.844 42.938 26.666 36c.618-5.21 4.678-9.875 6.948-11.57-.233 1.695-.606 8.665 1.552 12.07 3.285 5.183 8.046 3.404 8.501 10.5.36 5.61-5.846 9.078-8 11 7.5-1 15.161-7.904 16-15.5 1.047-9.495-5-18.5-5-18.5s-.833 3.277-2.052 5c-.99 1.398-3.143 3.059-3.143 3.059s1.047-9.08-3.143-15.059c-4.556-6.5-11.663-9-11.663-9s.965 10.562-2.5 17.5c-3.823 7.657-10.634 9.134-11.5 17Z"/></svg>