<svg xmlns="http://www.w3.org/2000/svg" width="64" height="64" fill="none" viewBox="0 0 64 64"><circle cx="32" cy="32" r="31.5" fill="#009ACE" stroke="#009ACE"/><rect width="32" height="30" x="16" y="17" stroke="#fff" stroke-width="2" rx="2"/><path fill="#fff" d="M17 24a1 1 0 1 0-2 0h2Zm37 15a1 1 0 1 0 0-2v2Zm-5-14.5a1 1 0 1 0-2 0h2ZM15 24V32h2V24h-2Zm0 8c0 2.592.51 4.425 1.668 5.582C17.833 38.748 19.428 39 21 39v-2c-1.428 0-2.333-.248-2.918-.832C17.49 35.575 17 34.408 17 32h-2Zm6 7H54v-2H21v2Zm33-2c-1.145 0-2.4-.234-3.344-.93C49.766 35.414 49 34.238 49 32h-2c0 2.762.984 4.586 2.47 5.68C50.9 38.734 52.644 39 54 39v-2Zm-5-5V24.5h-2V32h2Z"/><rect width="16" height="1" x="19" y="41" fill="#fff" rx=".5"/><rect width="8" height="1" x="19" y="43" fill="#fff" rx=".5"/><path stroke="#fff" stroke-linecap="round" stroke-linejoin="round" stroke-width="2" d="M28.5 22H34a3 3 0 0 1 3 3v0a3 3 0 0 1-3 3h-5.5"/><path stroke="#fff" stroke-linecap="round" stroke-width="2" d="M30 22v11M28.5 31H33"/></svg>