<svg xmlns="http://www.w3.org/2000/svg" width="64" height="64" fill="none" viewBox="0 0 64 64"><path stroke="#718C9E" stroke-linecap="round" stroke-linejoin="round" stroke-width="2" d="M46.588 55C52.891 55 58 50.075 58 44s-5.11-11-11.412-11H26M35.529 9C39.103 9 42 11.91 42 15.5S39.103 22 35.529 22H23"/><path stroke="#718C9E" stroke-linecap="round" stroke-linejoin="round" stroke-width="2" d="M32.572 47C35.018 47 37 45.21 37 43s-1.982-4-4.428-4H24M48.991 9C53.967 9 58 13.03 58 18s-4.033 9-9.009 9h-19.99M18 9 9.503 33.764 18 29.889 9 55"/></svg>