<svg xmlns="http://www.w3.org/2000/svg" width="64" height="64" fill="none" viewBox="0 0 64 64"><circle cx="32" cy="32" r="32" fill="#F7F9FC"/><g clip-path="url(#a)"><path stroke="#004065" stroke-linecap="round" stroke-width="2" d="M22 15h-3a2 2 0 0 0-2 2v30a2 2 0 0 0 2 2h26a2 2 0 0 0 2-2v-9.5"/><rect width="18" height="1" fill="#004065" rx=".5" transform="matrix(1 0 0 -1 23 43)"/><rect width="18" height="1" fill="#004065" rx=".5" transform="matrix(1 0 0 -1 23 37)"/><rect width="18" height="1" fill="#004065" rx=".5" transform="matrix(1 0 0 -1 23 40)"/><rect width="12" height="1" fill="#004065" rx=".5" transform="matrix(1 0 0 -1 23 34)"/><rect width="7" height="1" fill="#004065" rx=".5" transform="matrix(1 0 0 -1 23 28)"/><rect width="7" height="1" fill="#004065" rx=".5" transform="matrix(1 0 0 -1 23 31)"/><path stroke="#004065" stroke-width="2" d="m35.235 15.914-4.842 4.842a1.264 1.264 0 0 0 0 1.787l9.83 9.83a5.056 5.056 0 0 0 7.15-7.149l-2.037-2.038-7.273-7.272a2 2 0 0 0-2.828 0Z"/><circle cx="43.799" cy="28.799" r="1.944" stroke="#004065" stroke-width="2" transform="rotate(-45 43.799 28.8)"/><rect width="6.556" height="6.556" x="25.964" y="15.6" stroke="#004065" stroke-width="2" rx="1" transform="rotate(-45 25.964 15.6)"/><path stroke="#004065" stroke-linecap="round" stroke-linejoin="round" d="m28.995 15.492 1.025 1.045M30.477 14.003l1.045.997"/></g><defs><clipPath id="a"><path fill="#fff" d="M8 9h46v46H8z"/></clipPath></defs></svg>