<svg xmlns="http://www.w3.org/2000/svg" width="64" height="64" fill="none" viewBox="0 0 64 64"><circle cx="32" cy="32" r="31.5" fill="#009ACE" stroke="#009ACE"/><path stroke="#fff" stroke-linecap="round" stroke-width="2" d="M39 14H19a2 2 0 0 0-2 2v32a2 2 0 0 0 2 2h23a2 2 0 0 0 2-2v-5"/><path stroke="#fff" stroke-linecap="round" d="M21.5 19.5h16M21.5 22.5h15M21.5 25.5h7M21.5 32.5h13M21.5 35.5h13M21.5 38.5h10M22 42.5c2.5-.5 8-6.5 5.5-5.5s-5 8-4 8.5 9-5 6-4-4.5 4-2 4 8.5-4 6-3.5-2.5 5 0 3.5c2-1.2 2.333 1.166 3.5 0"/><path stroke="#fff" stroke-width="2" d="M47.259 15.9a2 2 0 0 1 2.64-1.012l1.28.57a2 2 0 0 1 1.012 2.641l-9.117 20.455a1.997 1.997 0 0 1-.37.555l-5.395 5.746.666-7.854a2 2 0 0 1 .166-.645L47.259 15.9Z"/><path stroke="#fff" stroke-linecap="round" d="m45.964 18.622 5.07 2.26M39.183 33.83l5.07 2.26"/><path stroke="#fff" stroke-linecap="round" stroke-width="2" d="m43.994 16.225-3.955 8.871"/></svg>