<svg xmlns="http://www.w3.org/2000/svg" width="512" height="370" fill="none" viewBox="0 0 512 370"><g stroke-width="12" clip-path="url(#a)"><path stroke="#fff" stroke-linecap="round" stroke-linejoin="round" d="M402.75 325.328v-12.187c0-6.465-3.13-12.665-8.701-17.236-5.571-4.571-13.127-7.139-21.006-7.139h-59.414c-7.879 0-15.435 2.568-21.006 7.139s-8.701 10.771-8.701 17.236v12.187M343.336 261.344c17.669 0 31.992-14.324 31.992-31.993 0-17.668-14.323-31.992-31.992-31.992s-31.992 14.324-31.992 31.992c0 17.669 14.323 31.993 31.992 31.993Z"/><path stroke="#095B8B" d="m76.512 192.574 85.873-52.302 80.83 132.713-85.872 52.302z"/><path stroke="#095B8B" d="m190.913 187.112 31.227-19.02 23.774 39.034-31.227 19.019z"/><path stroke="#095B8B" stroke-linecap="round" d="m254 220-3.332-5.068-32.243-52.938a2 2 0 0 1 .668-2.748l151.008-91.974a4 4 0 0 1 5.497 1.336l29.122 47.814a3.999 3.999 0 0 1-1.336 5.496L341 159.914"/><rect width="137.109" height="45.703" x="37.125" y="163.05" stroke="#095B8B" rx="2" transform="rotate(-31.344 37.125 163.05)"/><path stroke="#095B8B" d="m247.321 270.484-103.883 63.272a1.999 1.999 0 0 0-.668 2.748l21.693 35.617a1.999 1.999 0 0 0 2.748.668l98.43-59.95"/><circle cx="343.336" cy="256.773" r="95.977" stroke="#009DDB"/></g><defs><clipPath id="a"><path fill="#fff" d="M0 0h512v512H0z"/></clipPath></defs></svg>