<svg xmlns="http://www.w3.org/2000/svg" width="64" height="64" fill="none" viewBox="0 0 64 64"><circle cx="32" cy="32" r="32" fill="#F7F9FC"/><path stroke="#009DDB" stroke-linecap="round" stroke-linejoin="round" stroke-width="2" d="M41.334 42.5v-2.333a4.667 4.667 0 0 0-4.667-4.667h-9.333a4.667 4.667 0 0 0-4.667 4.667V42.5M32 30.833a4.667 4.667 0 1 0 0-9.333 4.667 4.667 0 0 0 0 9.333Z"/><path stroke="#009DDB" stroke-linejoin="round" stroke-width="2" d="M12.69 20.128a3.87 3.87 0 0 1 3.429-3.5C20.07 16.184 26.974 15.5 32 15.5s11.93.684 15.882 1.128a3.87 3.87 0 0 1 3.428 3.5c.294 3.188.69 8.176.69 11.872 0 3.75-.408 8.828-.703 12.008a3.852 3.852 0 0 1-3.267 3.466C44.107 48.065 37.1 49 32 49c-5.1 0-12.107-.935-16.03-1.526a3.852 3.852 0 0 1-3.267-3.465C12.408 40.828 12 35.748 12 32c0-3.696.396-8.684.69-11.872Z"/></svg>