<svg xmlns="http://www.w3.org/2000/svg" width="64" height="64" fill="none" viewBox="0 0 64 64"><circle cx="32" cy="32" r="32" fill="#F7F9FC"/><path stroke="#004065" stroke-width="2" d="m28.361 40-1.853 3.21a6.5 6.5 0 0 1-11.258-6.5l8.937-15.48a1.625 1.625 0 0 1 2.22-.596l8.851 5.11a2 2 0 0 1 1 1.733v.023"/><rect width="9" height="9" x="31.232" y="13.027" stroke="#004065" stroke-width="2" rx="1" transform="rotate(30 31.232 13.027)"/><path stroke="#004065" stroke-linecap="round" stroke-linejoin="round" d="m32.148 16.443-1 1.732M35.611 18.443l-1 1.732"/><circle cx="38.5" cy="37.5" r="10.5" stroke="#004065" stroke-width="2"/><path stroke="#004065" stroke-linejoin="round" d="m41.938 33-4.813 4.846-2.063-2.077L33 37.846 37.125 42 44 35.077 41.937 33Z"/></svg>