<svg xmlns="http://www.w3.org/2000/svg" width="64" height="64" fill="none" viewBox="0 0 64 64"><rect width="64" height="64" fill="#F7F9FC" rx="32"/><path fill="#FF7000" d="M24.722 44v-2.045l7.681-8.41a53.485 53.485 0 0 0 2.228-2.568c.583-.735 1.015-1.424 1.295-2.068a5.007 5.007 0 0 0 .432-2.045c0-.819-.197-1.527-.591-2.125a3.833 3.833 0 0 0-1.59-1.387c-.675-.326-1.433-.488-2.274-.488-.893 0-1.674.185-2.34.556-.66.364-1.171.875-1.535 1.534-.356.66-.534 1.432-.534 2.319h-2.681c0-1.364.314-2.56.943-3.591a6.553 6.553 0 0 1 2.568-2.41c1.09-.575 2.314-.863 3.67-.863 1.364 0 2.572.288 3.625.864 1.053.576 1.88 1.352 2.478 2.33.598.976.897 2.064.897 3.26 0 .857-.155 1.694-.466 2.512-.303.81-.833 1.716-1.59 2.716-.75.992-1.792 2.204-3.126 3.636l-5.227 5.591v.182h10.818V44H24.722Z"/></svg>