<svg xmlns="http://www.w3.org/2000/svg" width="512" height="370" fill="none" viewBox="0 0 512 370"><path stroke="#009DDB" stroke-linecap="round" stroke-linejoin="round" stroke-width="12" d="M148.667 76.666h185l64.666 65.834v255.166a35.666 35.666 0 0 1-35.666 35.667h-214A35.667 35.667 0 0 1 113 397.666V112.333a35.666 35.666 0 0 1 35.667-35.667Z"/><path stroke="#009DDB" stroke-linecap="round" stroke-linejoin="round" stroke-width="12" d="M332.667 78v65h65"/><path stroke="#095B8B" stroke-linecap="round" stroke-linejoin="round" stroke-width="12" d="M289.351 183.053h-5.027c-13.807 0-25-11.193-25-25V148c0-13.807 11.193-25 25-25h5.027M207.851 123v60.053L242.166 123v60.053M190.693 183.053h-12.026c-9.941 0-18-8.059-18-18v-12.027M190.693 123h-12.026c-9.941 0-18 8.059-18 18v12.026m0 0h17.158"/><path stroke="#fff" stroke-linecap="round" stroke-linejoin="round" stroke-width="12" d="M346.667 245h-100M346.667 301h-100M346.667 357h-100M203.667 284l-28.5 33.5-14.5-15.5M203.667 340l-28.5 33.5-14.5-15.5M203.667 228l-28.5 33.5-14.5-15.5"/></svg>