<svg xmlns="http://www.w3.org/2000/svg" width="60" height="20" fill="none" viewBox="0 0 60 20"><path fill="#D0D6DE" d="M39.083.612c-4.236 0-8.021 2.197-8.021 6.258 0 4.656 6.713 4.978 6.713 7.317 0 .985-1.128 1.867-3.054 1.867-2.733 0-4.776-1.232-4.776-1.232l-.874 4.097s2.353 1.04 5.478 1.04c4.63 0 8.275-2.305 8.275-6.434 0-4.92-6.741-5.233-6.741-7.404 0-.772.925-1.617 2.846-1.617 2.167 0 3.935.896 3.935.896l.855-3.958s-1.923-.83-4.636-.83ZM.329.91l-.103.598s1.782.326 3.387.977c2.067.747 2.214 1.182 2.562 2.532l3.793 14.635h5.084L22.884.91h-5.072l-5.033 12.743-2.054-10.801C10.537 1.616 9.583.91 8.415.91H.33Zm24.595 0-3.98 18.742h4.838L29.747.91h-4.823ZM51.9.91c-1.166 0-1.784.626-2.238 1.718l-7.086 17.024h5.072l.982-2.837h6.18l.596 2.837h4.476L55.978.91h-4.077Zm.66 5.064 1.504 7.033h-4.029l2.525-7.033Z"/></svg>