<svg xmlns="http://www.w3.org/2000/svg" width="512" height="370" fill="none" viewBox="0 0 512 370"><path stroke="#095B8B" stroke-linecap="round" stroke-width="12" d="M315 157h37a2 2 0 0 1 2 2v290a2 2 0 0 1-2 2H160a2 2 0 0 1-2-2V159a2 2 0 0 1 2-2h35.5"/><rect width="59" height="245" x="99" y="206" stroke="#095B8B" stroke-width="12" rx="2"/><rect width="59" height="245" x="354" y="206" stroke="#095B8B" stroke-width="12" rx="2"/><path stroke="#095B8B" stroke-width="12" d="M313.5 157H332a2 2 0 0 0 2-2v-45a2 2 0 0 0-2-2H179a2 2 0 0 0-2 2v45a2 2 0 0 0 2 2h19.5"/><rect width="98" height="40" x="207" y="68" stroke="#095B8B" stroke-width="12" rx="2"/><rect width="98" height="108" x="207" y="343" stroke="#009DDB" stroke-width="12" rx="2"/><path stroke="#095B8B" stroke-linecap="round" stroke-width="12" d="M256 68V39"/><circle cx="255.5" cy="209.5" r="76.5" stroke="#009DDB" stroke-width="12"/><path stroke="#fff" stroke-linecap="round" stroke-linejoin="round" stroke-width="12" d="M240.2 252.203v-84.949M227.868 224.343h36.538M227.869 209.728H240.2"/><path stroke="#fff" stroke-width="12" d="M240.2 209.728c32.275 0 48.412 0 48.412-21.237s-16.137-21.237-48.412-21.237"/></svg>