<svg xmlns="http://www.w3.org/2000/svg" width="64" height="64" fill="none" viewBox="0 0 64 64"><circle cx="32" cy="32" r="32" fill="#F7F9FC"/><path stroke="#004065" stroke-width="2" d="M17.037 21.555A1 1 0 0 1 17.869 20h6.596a1 1 0 0 1 .832.445l7.333 11a1 1 0 0 1 0 1.11l-7.333 11a1 1 0 0 1-.832.445h-6.596a1 1 0 0 1-.832-1.555l6.593-9.89a1 1 0 0 0 0-1.11l-6.593-9.89ZM34.036 21.555A1 1 0 0 1 34.868 20h6.597a1 1 0 0 1 .832.445l7.333 11a1 1 0 0 1 0 1.11l-7.333 11a1 1 0 0 1-.832.445h-6.597a1 1 0 0 1-.832-1.555l6.594-9.89a1 1 0 0 0 0-1.11l-6.594-9.89Z"/></svg>