<svg xmlns="http://www.w3.org/2000/svg" width="96" height="96" fill="none" viewBox="0 0 96 96"><path stroke="#009DDB" stroke-linecap="round" stroke-linejoin="round" stroke-width="2" d="M48 88s36-16.8 36-42V16.6L48 4 12 16.6V46c0 25.2 36 42 36 42Z"/><path stroke="#004065" stroke-width="2" d="m29.309 41.476 9.394-5.722 8.843 14.52-9.394 5.721zM41.825 40.879l3.416-2.08 2.601 4.27-3.416 2.08zM45.761 39.652a2 2 0 0 1 .668-2.748l12.384-7.543a3.5 3.5 0 1 1 3.641 5.978L50.07 42.883a2 2 0 0 1-2.748-.668l-1.56-2.562Z"/><rect width="15" height="5" x="25" y="38.246" stroke="#004065" stroke-width="2" rx="2" transform="rotate(-31.344 25 38.246)"/><rect width="15" height="5" x="36.444" y="57.036" stroke="#004065" stroke-width="2" rx="2" transform="rotate(-31.344 36.444 57.036)"/><path stroke="#004065" stroke-linecap="round" stroke-linejoin="round" stroke-width="2" d="M48 61h12.5M53 57l9-3m-7-2 3-3"/></svg>