<svg xmlns="http://www.w3.org/2000/svg" width="64" height="64" fill="none" viewBox="0 0 64 64"><circle cx="32" cy="32" r="32" fill="#F7F9FC"/><rect width="11" height="1" x="24" y="18" fill="#FF7000" rx=".5"/><rect width="18" height="1" x="20" y="23" fill="#FF7000" rx=".5"/><rect width="18" height="1" x="20" y="26" fill="#FF7000" rx=".5"/><rect width="12" height="1" x="20" y="29" fill="#FF7000" rx=".5"/><rect width="7" height="1" x="20" y="32" fill="#FF7000" rx=".5"/><rect width="7" height="1" x="20" y="35" fill="#FF7000" rx=".5"/><path stroke="#FF7000" stroke-linejoin="round" d="m36.938 33-4.813 4.846-2.063-2.077L28 37.846 32.125 42 39 35.077 36.937 33Z"/><rect width="26" height="34" x="16" y="13" stroke="#FF7000" stroke-width="2" rx="2"/><path stroke="#FF7000" stroke-width="2" d="M42 17h4a2 2 0 0 1 2 2v30a2 2 0 0 1-2 2H24a2 2 0 0 1-2-2v-2"/></svg>