<svg xmlns="http://www.w3.org/2000/svg" width="64" height="64" fill="none" viewBox="0 0 64 64"><circle cx="32" cy="32" r="32" fill="#F7F9FC"/><path stroke="#009DDB" stroke-linecap="round" stroke-linejoin="round" stroke-width="2" d="M41.333 50.5v-2.333a4.667 4.667 0 0 0-4.666-4.667h-9.334a4.667 4.667 0 0 0-4.666 4.667V50.5M32 40.333A4.667 4.667 0 1 0 32 31a4.667 4.667 0 0 0 0 9.333ZM32 13.5c8.464 0 15.389 7.298 14.983 15.737a5.167 5.167 0 0 0-10.008-1.33M32 13.5c-8.464 0-15.389 7.298-14.983 15.737a5.167 5.167 0 0 1 10.008-1.33M32 13.5V11m0 2.5s-3 1-4.334 6.667c-.694 2.952-.64 7.74-.64 7.74M32 13.5s3 1.167 4.334 6.667c.714 2.948.64 7.74.64 7.74m-9.949 0a5.336 5.336 0 0 1 9.95 0"/></svg>