<svg xmlns="http://www.w3.org/2000/svg" width="64" height="64" fill="none" viewBox="0 0 64 64"><circle cx="32" cy="32" r="31.5" fill="#009ACE" stroke="#009ACE"/><rect width="12" height="1" x="26" y="17" fill="#fff" rx=".5"/><rect width="22" height="1" x="21" y="21" fill="#fff" rx=".5"/><rect width="9" height="1" x="34" y="24" fill="#fff" rx=".5"/><rect width="7" height="1" x="36" y="27" fill="#fff" rx=".5"/><rect width="6" height="1" x="37" y="30" fill="#fff" rx=".5"/><rect width="6" height="1" x="37" y="33" fill="#fff" rx=".5"/><path stroke="#fff" stroke-linecap="round" stroke-width="2" d="M17 23.5V15a2 2 0 0 1 2-2h26a2 2 0 0 1 2 2v34a2 2 0 0 1-2 2H19a2 2 0 0 1-2-2v-2.5"/><circle cx="24" cy="35" r="10" stroke="#fff" stroke-width="2"/><path stroke="#fff" stroke-linejoin="round" d="m27.438 31-4.813 4.846-2.063-2.077-2.062 2.077L22.625 40l6.875-6.923L27.437 31Z"/><path stroke="#fff" stroke-linecap="round" stroke-width="2" d="m32 42 6.5 6.5"/></svg>