<svg xmlns="http://www.w3.org/2000/svg" width="64" height="64" fill="none" viewBox="0 0 64 64"><circle cx="32" cy="32" r="31.5" fill="#009ACE" stroke="#009ACE"/><rect width="11" height="1" x="25" y="18" fill="#fff" rx=".5"/><rect width="18" height="1" x="21" y="23" fill="#fff" rx=".5"/><rect width="18" height="1" x="21" y="26" fill="#fff" rx=".5"/><rect width="12" height="1" x="21" y="29" fill="#fff" rx=".5"/><rect width="7" height="1" x="21" y="32" fill="#fff" rx=".5"/><path stroke="#fff" stroke-linecap="round" stroke-width="2" d="M43 47h-6m6-19V15a2 2 0 0 0-2-2H19a2 2 0 0 0-2 2v30a2 2 0 0 0 2 2h9"/><path stroke="#fff" stroke-width="2" d="M43 17h4a2 2 0 0 1 2 2v30a2 2 0 0 1-2 2H25a2 2 0 0 1-2-2v-2"/><path stroke="#fff" stroke-linecap="round" stroke-linejoin="round" stroke-width="2" d="M31 35h14m0 0-4-4m4 4-4 3.5M43 42H29m0 0 4-4m-4 4 4 4"/></svg>