<svg xmlns="http://www.w3.org/2000/svg" width="167" height="19" fill="none" viewBox="0 0 167 19"><path fill="#95ACBC" d="M25.24 0 12.61 12.632c-.62.619-1.363 1.073-2.147 1.28-.62.164-1.238.247-1.899.164-2.642-.247-4.706-2.642-4.54-5.283A5.25 5.25 0 0 1 5.466 5.49c.95-.95 2.188-1.486 3.55-1.486h.042a4.97 4.97 0 0 1 2.435.62 5.003 5.003 0 0 1 2.436 3.178l3.013-3.014.083-.04a9.299 9.299 0 0 0-2.642-3.014A8.943 8.943 0 0 0 8.439.04C3.94.331.307 4.004.02 8.462c-.33 5.243 3.838 9.619 9.04 9.619 1.94 0 3.715-.62 5.2-1.652.414-.289.785-.619 1.115-.99L30.813.083 25.24 0ZM37.872 0c-1.94 0-3.716.62-5.202 1.61a8.42 8.42 0 0 0-1.114.95L16.117 18.04l5.573.082L34.32 5.49c.62-.619 1.363-1.073 2.147-1.28.62-.165 1.238-.247 1.899-.165 2.642.248 4.706 2.642 4.54 5.284-.082 1.239-.577 2.436-1.444 3.303-.95.949-2.188 1.486-3.55 1.486h-.041c-.867 0-1.734-.207-2.436-.62-.825-.454-1.527-1.114-1.981-1.981A4.212 4.212 0 0 1 33 10.32l-3.055 3.055c.66 1.197 1.527 2.229 2.642 3.013 1.651 1.197 3.715 1.858 5.985 1.734 4.5-.29 8.132-3.963 8.421-8.463C47.242 4.376 43.073 0 37.872 0ZM54 7.89c0-2.144.528-3.695 1.584-4.653 1.057-.958 2.735-1.436 5.035-1.436h1.083V.526h3.59v1.275h1.083c2.3 0 3.978.478 5.034 1.436 1.057.958 1.585 2.509 1.585 4.653 0 2.131-.542 3.71-1.625 4.734-1.083 1.025-2.707 1.538-4.874 1.538h-1.203v1.416h-3.59v-1.416h-1.184c-2.18 0-3.81-.513-4.893-1.538C54.54 11.6 54 10.021 54 7.89Zm11.974-3.095h-.682v6.373h.802c1.056 0 1.845-.243 2.367-.729.535-.499.802-1.315.802-2.448 0-1.214-.24-2.05-.722-2.508-.481-.459-1.337-.688-2.567-.688ZM57.73 7.99c0 1.133.26 1.95.782 2.448.535.486 1.337.729 2.407.729h.782V4.795h-.682c-1.23 0-2.086.23-2.567.688-.482.458-.722 1.294-.722 2.508ZM77.485 15.335c-1.056 0-1.885-.276-2.487-.83-.602-.566-.903-1.355-.903-2.366 0-2.037 1.27-3.055 3.811-3.055.669 0 1.765.047 3.29.141v-.768c0-.445-.14-.762-.422-.951-.267-.203-.702-.304-1.303-.304-.562 0-.983.088-1.264.263-.267.176-.428.493-.481.951h-3.35c.08-1.403.528-2.387 1.344-2.954.83-.566 2.106-.85 3.83-.85 1.646 0 2.89.304 3.731.911.856.607 1.284 1.571 1.284 2.893v6.616h-3.37V13.11h-.34c-.214.728-.615 1.281-1.204 1.659-.575.377-1.297.566-2.166.566Zm1.665-2.407c.575 0 1.05-.122 1.424-.364.388-.257.595-.655.622-1.194v-.526a24.282 24.282 0 0 0-1.906-.081c-.668 0-1.116.101-1.344.303a1.007 1.007 0 0 0-.34.79c0 .714.514 1.072 1.544 1.072ZM91.404 15.335c-1.925 0-3.33-.445-4.212-1.335-.869-.904-1.303-2.448-1.303-4.633 0-.89.02-1.625.06-2.205.04-.594.147-1.248.32-1.963.188-.728.442-1.321.763-1.78.334-.472.809-.904 1.424-1.295.615-.404 1.357-.701 2.226-.89C93.142.654 94.687.243 95.315 0l.782 2.832c-.735.284-2.025.628-3.87 1.032-1.124.23-1.886.661-2.287 1.295-.388.62-.602 1.457-.642 2.509h.321c.2-.607.582-1.093 1.143-1.457.575-.378 1.27-.566 2.086-.566 1.204 0 2.173.364 2.909 1.092.735.715 1.103 1.875 1.103 3.48 0 1.874-.435 3.196-1.304 3.965-.87.769-2.253 1.153-4.152 1.153Zm0-2.59c.722 0 1.25-.195 1.585-.586.334-.391.501-1.059.501-2.003 0-.877-.167-1.497-.501-1.861-.321-.364-.85-.546-1.585-.546-.722 0-1.263.188-1.624.566-.362.364-.542.978-.542 1.841 0 .944.174 1.612.522 2.003.347.391.895.587 1.644.587ZM105.191 15.335c-1.752 0-2.828-.796-3.229-2.387h-.341v5.725h-3.37V4.916h3.37V7h.341c.187-.755.555-1.342 1.103-1.76.562-.418 1.27-.627 2.126-.627 1.364 0 2.367.398 3.009 1.193.641.796.962 2.199.962 4.208 0 1.997-.321 3.386-.962 4.168-.642.769-1.645 1.153-3.009 1.153Zm-1.564-8.133c-1.297 0-1.966.607-2.006 1.821v1.8c0 1.282.669 1.923 2.006 1.923.842 0 1.417-.176 1.725-.526.307-.365.461-1.1.461-2.206 0-1.132-.161-1.881-.481-2.245-.308-.378-.876-.567-1.705-.567ZM120.52 15.032h-3.229V9.67l-4.232 5.36h-2.488V4.917h3.25v5.402l4.111-5.402h2.588v10.116ZM132.598 4.916l-3.229 4.613 3.51 5.503h-3.851l-2.427-4.188h-1.123v4.188h-3.37V4.916h3.37v5.098l3.389-5.098h3.731ZM136.617 15.335c-1.056 0-1.885-.276-2.487-.83-.601-.566-.902-1.355-.902-2.366 0-2.037 1.27-3.055 3.81-3.055.669 0 1.765.047 3.29.141v-.768c0-.445-.141-.762-.421-.951-.268-.203-.702-.304-1.304-.304-.562 0-.983.088-1.264.263-.267.176-.428.493-.481.951h-3.35c.081-1.403.529-2.387 1.344-2.954.829-.566 2.106-.85 3.831-.85 1.645 0 2.888.304 3.731.911.855.607 1.283 1.571 1.283 2.893v6.616h-3.369V13.11h-.341c-.214.728-.615 1.281-1.204 1.659-.575.377-1.297.566-2.166.566Zm1.665-2.407c.575 0 1.05-.122 1.424-.364.388-.257.595-.655.622-1.194v-.526a24.283 24.283 0 0 0-1.906-.081c-.668 0-1.116.101-1.343.303a1.005 1.005 0 0 0-.341.79c0 .714.514 1.072 1.544 1.072ZM148.551 4.916v3.642h3.53V4.916h3.369v10.116h-3.369v-3.885h-3.53v3.885h-3.37V4.916h3.37ZM156.41 4.916h9.788v2.59h-3.21v7.526h-3.369V7.506h-3.209v-2.59Z"/></svg>