<svg xmlns="http://www.w3.org/2000/svg" width="37" height="23" fill="none" viewBox="0 0 37 23"><path fill="#E3E9EF" fill-rule="evenodd" d="M13.513 20.16h9.831V2.413h-9.831V20.16Z" clip-rule="evenodd"/><path fill="#D0D6DE" fill-rule="evenodd" d="M14.137 11.287c0-3.6 1.679-6.807 4.292-8.873A11.155 11.155 0 0 0 11.485 0C5.28 0 .25 5.054.25 11.287c0 6.233 5.03 11.286 11.235 11.286 2.621 0 5.032-.901 6.944-2.413a11.285 11.285 0 0 1-4.292-8.873ZM36.257 18.28v-.438h-.114l-.13.301-.132-.3h-.114v.437h.08v-.33l.123.285h.084l.123-.286v.331h.08Zm-.721 0v-.363h.146v-.074h-.372v.074h.146v.363h.08Zm1.072-6.994c0 6.234-5.03 11.287-11.235 11.287-2.622 0-5.033-.902-6.944-2.413a11.284 11.284 0 0 0 4.291-8.874c0-3.6-1.678-6.806-4.291-8.873A11.155 11.155 0 0 1 25.373 0c6.204 0 11.235 5.053 11.235 11.286Z" clip-rule="evenodd"/></svg>