<svg xmlns="http://www.w3.org/2000/svg" width="64" height="64" fill="none" viewBox="0 0 64 64"><circle cx="32" cy="32" r="31.5" fill="#009ACE" stroke="#009ACE"/><g clip-path="url(#a)"><path stroke="#fff" stroke-width="2" d="M32.367 18.878a2 2 0 0 1 1.266 0l16.944 5.648a.5.5 0 0 1 0 .948l-16.944 5.648a2 2 0 0 1-1.266 0l-16.944-5.648a.5.5 0 0 1 0-.948l16.944-5.648Z"/><path fill="#fff" d="M21 27.5a1 1 0 1 0-2 0h2Zm23.978 11.042-.452-.892.452.892ZM45 27.5v9.34h2V27.5h-2Zm-24 9.34V27.5h-2v9.34h2Zm23.526.81C42.373 38.74 37.355 41 33 41v2c4.873 0 10.266-2.47 12.43-3.566l-.904-1.784ZM33 41c-4.355 0-9.373-2.26-11.526-3.35l-.904 1.784C22.734 40.529 28.127 43 33 43v-2Zm-14-4.16c0 1.07.573 2.089 1.57 2.594l.904-1.784a.89.89 0 0 1-.474-.81h-2Zm26 0a.89.89 0 0 1-.474.81l.904 1.784c.997-.505 1.57-1.524 1.57-2.595h-2Z"/><path stroke="#fff" stroke-linecap="round" stroke-width="2" d="M15 25v14"/><circle cx="15" cy="41" r="2" stroke="#fff" stroke-width="2"/></g><defs><clipPath id="a"><path fill="#fff" d="M9 9h46v46H9z"/></clipPath></defs></svg>