<svg xmlns="http://www.w3.org/2000/svg" width="512" height="370" fill="none" viewBox="0 0 512 370"><path stroke="#009DDB" stroke-linecap="round" stroke-linejoin="round" stroke-width="12" d="m124.662 213-25.521 5.334c-16.014 3.346-17.166 21.689-1.205 25.28C131.909 251.257 184.076 259 256 259c71.811 0 123.927-7.719 157.904-15.35 15.978-3.589 14.814-21.935-1.222-25.255L386.624 213"/><path stroke="#009DDB" stroke-linecap="round" stroke-linejoin="round" stroke-width="12" d="M188 221s21.349 3 68 3c46.651 0 68-3 68-3"/><path stroke="#095B8B" stroke-linecap="round" stroke-linejoin="round" stroke-width="12" d="M385 278c0 71.797-57.979 130-129.5 130S126 349.797 126 278"/><path stroke="#009DDB" stroke-linecap="round" stroke-linejoin="round" stroke-width="12" d="M383 194c0-56.805-21.167-106.005-63.5-107.096C301.965 86.452 310.429 66 256 66s-45.965 20.452-63.5 20.904C150.167 87.994 129 137.195 129 194"/><path stroke="#009DDB" stroke-linecap="round" stroke-width="12" d="M202 90c6.527 12.4 19.462 45.36 18.987 78M310 90c-6.527 12.4-19.462 45.36-18.987 78"/></svg>