<svg xmlns="http://www.w3.org/2000/svg" width="512" height="370" fill="none" viewBox="0 0 512 370"><g clip-path="url(#a)"><rect width="125" height="11" x="283" y="185" fill="#095B8B" rx="5.5"/><rect width="80" height="11" x="324" y="219" fill="#095B8B" rx="5.5"/><rect width="62" height="11" x="333" y="252" fill="#095B8B" rx="5.5"/><rect width="56" height="11" x="333" y="285" fill="#095B8B" rx="5.5"/><circle cx="214.5" cy="291.5" r="95.5" stroke="#009DDB" stroke-width="12"/><path stroke="#fff" stroke-linecap="round" stroke-linejoin="round" stroke-width="12" d="m269 255-76.604 73L160 297.583"/><path stroke="#009DDB" stroke-width="12" d="M399.946 97.043h42.325c11.088 0 19.54 9.929 17.769 20.875l-47.883 296.003c-1.41 8.718-8.937 15.125-17.769 15.125H176.972c-11.088 0-19.54-9.928-17.769-20.874L164.892 373M273.004 97.043h-48.149a18 18 0 0 0-17.769 15.126L193.282 197.5"/><path stroke="#009DDB" stroke-width="12" d="M269.985 94.152a16 16 0 0 1 15.782-13.37h100.089c9.887 0 17.408 8.879 15.782 18.631l-3.797 22.783a16 16 0 0 1-15.782 13.369H281.97c-9.887 0-17.408-8.878-15.782-18.63l3.797-22.783Z"/><path fill="#009DDB" d="M304.116 73.817a12 12 0 0 1 11.859-10.165h42.916c7.359 0 12.984 6.563 11.859 13.836l-1.454 9.39a12 12 0 0 1-11.859 10.165h-42.915c-7.359 0-12.985-6.563-11.859-13.835l1.453-9.391Z"/><path stroke="#095B8B" stroke-linecap="round" stroke-width="12" d="M178.364 119.304h-59.581m33.278 66.783h-77.8m77.8 66.783H52m79.5 66.782H52m66.669 66.783H85.391"/></g><defs><clipPath id="a"><path fill="#fff" d="M0 0h512v512H0z"/></clipPath></defs></svg>