<svg xmlns="http://www.w3.org/2000/svg" width="64" height="64" fill="none" viewBox="0 0 64 64"><circle cx="32" cy="32" r="32" fill="#F7F9FC"/><path stroke="#009DDB" stroke-linecap="round" stroke-width="2" d="m43.666 35.333 3.46-3.46a1 1 0 0 1 1.414 0l3.46 3.46M12 28.666l3.46 3.46a1 1 0 0 0 1.414 0l3.46-3.46M28.667 43.667l3.46 3.46a1 1 0 0 1 0 1.413L28.667 52M35.335 12l-3.46 3.46a1 1 0 0 0 0 1.414l3.46 3.46"/><path fill="#009DDB" fill-rule="evenodd" d="M26.582 16.057C19.943 18.312 15.166 24.598 15.166 32c0 .166.002.33.007.495l1.994-.36-.001-.135c0-6.416 4.074-11.881 9.776-13.949l-.36-1.994Zm5.281 1.11-.36-1.993c.165-.005.33-.007.496-.007 7.402 0 13.689 4.777 15.944 11.417l-1.994.36c-2.068-5.703-7.533-9.777-13.95-9.777h-.136Zm5.192 28.782c5.703-2.067 9.778-7.532 9.778-13.949v-.135l1.993-.36c.004.165.007.33.007.495 0 7.402-4.778 13.688-11.418 15.943l-.36-1.994ZM18.05 37.057c2.068 5.702 7.533 9.776 13.95 9.776h.134l.36 1.993c-.165.005-.33.007-.495.007-7.401 0-13.688-4.777-15.943-11.416l1.994-.36Z" clip-rule="evenodd"/><path stroke="#009DDB" stroke-linecap="round" stroke-linejoin="round" stroke-width="2" d="m38 28-7.73 8L27 32.667"/></svg>