<svg xmlns="http://www.w3.org/2000/svg" width="64" height="64" fill="none" viewBox="0 0 64 64"><circle cx="32" cy="32" r="32" fill="#F7F9FC"/><path stroke="#004065" stroke-linecap="round" stroke-width="2" d="M43.241 16.41 28.807 30.037a2 2 0 0 1-3.118-.477l-2.698-4.82a4.714 4.714 0 0 0-6.416-1.81c-.962.538-1.266 1.79-.712 2.743a56.152 56.152 0 0 1 3.07 6.126c.97 2.285 1.058 5.582.967 8.298-.087 2.578.753 5.084 2.478 7l1.993 2.215c3.767 4.185 10.246 4.436 14.325.554l5.15-4.899a5 5 0 0 0 1.112-5.675l-3.438-7.636a4 4 0 0 1 .4-3.98l5.488-7.62a2.78 2.78 0 0 0-4.167-3.648ZM29.064 8.873v4.847M37.492 13.7l-3.428 3.428M20.637 13.7l3.427 3.428"/></svg>