<svg xmlns="http://www.w3.org/2000/svg" width="32" height="32" fill="none" viewBox="0 0 32 32"><path fill="#D0D6DE" fill-rule="evenodd" d="M32 16c0 8.837-7.163 16-16 16S0 24.837 0 16 7.163 0 16 0s16 7.163 16 16Zm-14.566-4.578-10.775 4.44c-1.896.739-.786 1.432-.786 1.432s1.618.556 3.005.972c1.388.416 2.128-.047 2.128-.047l6.52-4.392c2.312-1.573 1.757-.278 1.202.277a176.122 176.122 0 0 1-4.855 4.624c-.74.648-.37 1.202-.047 1.48.941.796 3.157 2.244 4.164 2.902.28.183.467.304.507.335.232.185 1.526 1.017 2.312.832.786-.184.879-1.248.879-1.248l1.156-7.26c.102-.68.206-1.347.302-1.968.248-1.616.45-2.928.484-3.396.139-1.573-1.526-.925-1.526-.925s-3.607 1.48-4.67 1.942Z" clip-rule="evenodd"/></svg>
