<svg xmlns="http://www.w3.org/2000/svg" width="32" height="32" fill="none" viewBox="0 0 32 32"><path fill="#D0D6DE" fill-rule="evenodd" d="M16 32C7.163 32 0 24.837 0 16S7.163 0 16 0s16 7.163 16 16-7.163 16-16 16Zm5.814-20.683-.25.535s-1.186 2.518-2.63 4.105c-.464.513-.7.668-.956.668-.207 0-.302-.172-.302-.635V11.2h-4.49v.367c0 .535.82.655.82 2.103v2.988c0 .601-.032.834-.316.834-.756 0-2.548-2.586-3.554-5.523l-.25-.769H6.954c-.32 0-.554.217-.554.534 0 .584.688 3.288 3.384 6.91 1.81 2.438 4.19 3.756 6.334 3.756 1.308 0 1.625-.217 1.625-.767v-1.87c0-.467.185-.668.454-.668.301 0 .833.096 2.077 1.32l1.993 1.985h2.848c.252 0 .487-.116.487-.534 0-.552-.72-1.536-1.827-2.704-.452-.6-1.19-1.252-1.424-1.553-.334-.35-.234-.55 0-.917 0 0 2.53-3.556 2.782-4.723.085-.418-.1-.652-.536-.652h-2.783Z" clip-rule="evenodd"/></svg>
