<svg xmlns="http://www.w3.org/2000/svg" width="32" height="32" fill="none" viewBox="0 0 32 32"><g clip-path="url(#a)"><path fill="#D0D6DE" fill-rule="evenodd" d="M16 32C7.163 32 0 24.837 0 16S7.163 0 16 0s16 7.163 16 16-7.163 16-16 16Zm7.958-19.846a1.554 1.554 0 0 0-1.534-1.322h.106s-2.752-.416-6.41-.432c-3.66.017-6.412.432-6.412.432h.106a1.554 1.554 0 0 0-1.535 1.322C8.18 12.868 8.015 14.293 8 16c.014 1.707.18 3.13.28 3.845a1.553 1.553 0 0 0 1.534 1.322h-.106s2.751.416 6.411.433c3.66-.018 6.411-.432 6.411-.432h-.106a1.554 1.554 0 0 0 1.534-1.323 30.49 30.49 0 0 0 .28-3.845 30.653 30.653 0 0 0-.28-3.846Zm-5.434 4.192-3.278 2.383a.394.394 0 0 1-.627-.32v-4.761a.395.395 0 0 1 .627-.32l3.278 2.38a.395.395 0 0 1 0 .64v-.002Z" clip-rule="evenodd"/></g><defs><clipPath id="a"><path fill="#fff" d="M0 0h32v32H0z"/></clipPath></defs></svg>
