<svg xmlns="http://www.w3.org/2000/svg" width="64" height="64" fill="none" viewBox="0 0 64 64"><circle cx="32" cy="32" r="32" fill="#F7F9FC"/><circle cx="39.5" cy="32.5" r="13.5" stroke="#FF7000" stroke-width="2"/><path stroke="#FF7000" stroke-linecap="round" stroke-linejoin="round" stroke-width="2" d="M37 40V26M35 37h6M35 33h2"/><path stroke="#FF7000" stroke-width="2" d="M37 33c5.333 0 8 0 8-3.5S42.333 26 37 26"/><path stroke="#FF7000" stroke-linecap="round" stroke-linejoin="round" stroke-width="2" d="M26 20h-7m7 0-2 2m2-2-2-2m-1 8H13m8 6H10m11 0-2-2m2 2-2 2m3 4H12m13 6h-6m6 0-2-2m2 2-2 2"/></svg>