<svg xmlns="http://www.w3.org/2000/svg" width="64" height="64" fill="none" viewBox="0 0 64 64"><path stroke="#718C9E" stroke-width="2" d="M42.872 25.527 34.56 36.001 18.373 23.156l8.312-10.474zM28.847 31.468l-13.17 16.598-4.762-3.779L24.086 27.69z"/><path stroke="#718C9E" stroke-linecap="round" stroke-linejoin="round" stroke-width="2" d="M29 42.745 30.5 53l6.5-5 7.5 5 1-8.5 8 3.5-2.5-9 7.5-3.5-6-5 5.5-8-10.15-1.776v-8.617l-8.7 3.83"/><path stroke="#718C9E" stroke-width="2" d="M15.07 47.566a2 2 0 0 1 .323 2.81L14.15 51.94a4 4 0 0 1-5.62.647l-.398-.316a4 4 0 0 1-.647-5.62l1.242-1.564a2 2 0 0 1 2.81-.324l3.531 2.803Z"/><rect width="18.233" height="6.078" x="49.143" y="27.401" stroke="#718C9E" stroke-width="2" rx="2" transform="rotate(128.434 49.143 27.4)"/><rect width="18.233" height="6.078" x="28.196" y="10.778" stroke="#718C9E" stroke-width="2" rx="2" transform="rotate(128.434 28.196 10.778)"/></svg>