<svg xmlns="http://www.w3.org/2000/svg" width="64" height="64" fill="none" viewBox="0 0 64 64"><circle cx="32" cy="32" r="32" fill="#F7F9FC"/><path stroke="#FF7000" stroke-linecap="round" stroke-width="2" d="M43.241 16.41 28.807 30.037a2 2 0 0 1-3.118-.477l-2.698-4.82a4.715 4.715 0 0 0-6.416-1.81c-.962.538-1.266 1.79-.712 2.743a56.136 56.136 0 0 1 3.07 6.126c.969 2.285 1.058 5.582.966 8.298-.086 2.578.753 5.084 2.48 7l1.991 2.215c3.768 4.185 10.247 4.436 14.326.554l5.149-4.899a5 5 0 0 0 1.113-5.675l-3.438-7.636a4 4 0 0 1 .4-3.98l5.487-7.62a2.781 2.781 0 0 0-4.166-3.648ZM29.064 8.873v4.847M37.492 13.7l-3.428 3.428M20.637 13.7l3.427 3.428"/></svg>