<svg xmlns="http://www.w3.org/2000/svg" width="65" height="64" fill="none" viewBox="0 0 65 64"><rect width="40" height="10" x="7.667" y="39" stroke="#718C9E" stroke-width="2" rx="5"/><path stroke="#718C9E" stroke-width="2" d="m29.167 28.5-1.874-12.646a1 1 0 0 0-.989-.854H14.667a1 1 0 0 0-1 1v12.5m15.5 0 10.586.92a1 1 0 0 1 .914.997V38a1 1 0 0 1-1 1h-25a1 1 0 0 1-1-1v-9.5m15.5 0h-15.5"/><path stroke="#718C9E" stroke-linecap="round" stroke-linejoin="round" stroke-width="2" d="M36.667 29v-6m4 15h9.5m-.5-7 2.5 19h7.5l-10-19Z"/><circle cx="12.667" cy="44" r="1" fill="#718C9E"/><circle cx="17.667" cy="44" r="1" fill="#718C9E"/><circle cx="22.667" cy="44" r="1" fill="#718C9E"/><circle cx="27.667" cy="44" r="1" fill="#718C9E"/><circle cx="32.667" cy="44" r="1" fill="#718C9E"/><circle cx="37.667" cy="44" r="1" fill="#718C9E"/><circle cx="42.667" cy="44" r="1" fill="#718C9E"/></svg>