<svg xmlns="http://www.w3.org/2000/svg" width="64" height="64" fill="none" viewBox="0 0 64 64"><circle cx="32" cy="32" r="32" fill="#F7F9FC"/><path stroke="#004065" stroke-width="2" d="m17.675 42.388-3.42-16.529c-.307-1.488 1.416-2.544 2.603-1.595l3.727 2.982c2.49 1.992 6.192 1.09 7.488-1.824l2.444-5.5c.571-1.285 2.394-1.285 2.965 0l2.445 5.5c1.295 2.915 4.997 3.816 7.487 1.824l3.728-2.982c1.187-.95 2.91.107 2.602 1.595l-3.42 16.53a3.244 3.244 0 0 1-3.177 2.586H20.853a3.244 3.244 0 0 1-3.178-2.587Z"/></svg>